<?xml version="1.0" standalone="no"?>
<!DOCTYPE svg PUBLIC "-//W3C//DTD SVG 20010904//EN"
 "http://www.w3.org/TR/2001/REC-SVG-20010904/DTD/svg10.dtd">
<svg version="1.0" xmlns="http://www.w3.org/2000/svg"
 width="512.000000pt" height="512.000000pt" viewBox="0 0 512.000000 512.000000"
 preserveAspectRatio="xMidYMid meet">
<metadata>
Created by potrace 1.14, written by Peter Selinger 2001-2017
</metadata>
<g transform="translate(0.000000,512.000000) scale(0.100000,-0.100000)"
fill="#000000" stroke="none">
<path d="M1180 3731 c-142 -30 -308 -119 -391 -208 -90 -97 -98 -124 -50 -167
25 -23 86 -23 266 0 172 22 428 28 585 15 345 -30 390 -32 421 -16 31 17 45
51 34 85 -11 36 -109 125 -196 179 -188 116 -446 159 -669 112z"/>
<path d="M179 3712 c-149 -78 -158 -288 -16 -376 58 -36 135 -45 189 -23 33
14 277 196 277 207 0 10 -232 185 -268 202 -55 26 -119 23 -182 -10z"/>
<path d="M3545 3724 c-178 -39 -325 -116 -426 -221 -49 -50 -59 -67 -59 -96 0
-57 27 -72 126 -70 46 0 114 6 151 12 201 33 502 31 786 -4 173 -21 203 -20
232 10 50 49 20 116 -96 211 -64 52 -209 126 -294 149 -88 24 -330 29 -420 9z"/>
<path d="M4759 3723 c-36 -18 -268 -193 -268 -203 0 -11 244 -193 277 -207 54
-22 131 -13 189 23 60 37 103 114 103 184 0 71 -43 147 -104 184 -60 38 -143
45 -197 19z"/>
<path d="M390 3084 c-142 -19 -184 -28 -229 -51 -175 -90 -206 -336 -59 -468
56 -52 116 -76 187 -76 77 -1 129 16 187 60 80 60 100 112 129 335 14 104 25
198 25 208 0 23 -15 23 -240 -8z"/>
<path d="M4490 3092 c0 -10 11 -104 25 -208 20 -157 29 -198 52 -244 90 -174
336 -205 468 -58 52 56 76 116 76 187 1 77 -16 129 -60 187 -60 80 -112 100
-335 129 -228 30 -226 30 -226 7z"/>
<path d="M964 2460 c24 -367 167 -699 428 -990 219 -244 508 -406 861 -482 87
-19 133 -22 307 -22 175 0 220 3 310 23 351 75 648 245 873 498 247 277 390
615 413 973 l7 100 -281 0 c-155 0 -282 -2 -282 -5 0 -25 -64 -293 -75 -315
-8 -16 -29 -39 -47 -52 l-33 -23 -874 -3 c-868 -2 -874 -2 -917 19 -60 29 -79
66 -104 204 -11 66 -23 132 -26 148 l-6 27 -280 0 -281 0 7 -100z"/>
</g>
</svg>
